{
	"asset":{
		"generator":"Khronos glTF Blender I/O v3.6.27",
		"version":"2.0"
	},
	"extensionsUsed":[
		"KHR_materials_unlit"
	],
	"scene":0,
	"scenes":[
		{
			"name":"Scene",
			"nodes":[
				0,
				1
			]
		}
	],
	"nodes":[
		{
			"mesh":0,
			"name":"m_an01"
		},
		{
			"mesh":1,
			"name":"eyes"
		}
	],
	"materials":[
		{
			"doubleSided":true,
			"extensions":{
				"KHR_materials_unlit":{}
			},
			"name":"MBlab_toon_black",
			"pbrMetallicRoughness":{
				"baseColorFactor":[
					0,
					0,
					0,
					1
				],
				"metallicFactor":0,
				"roughnessFactor":0.9
			}
		},
		{
			"doubleSided":true,
			"name":"MBlab_generic",
			"pbrMetallicRoughness":{}
		},
		{
			"doubleSided":true,
			"name":"MBLab_anime_skin",
			"pbrMetallicRoughness":{}
		},
		{
			"doubleSided":true,
			"name":"MBLab_anime_eyes",
			"pbrMetallicRoughness":{}
		}
	],
	"meshes":[
		{
			"extras":{
				"targetNames":[
					"Key 1"
				]
			},
			"name":"MBLab_anime_male",
			"primitives":[
				{
					"attributes":{
						"POSITION":0,
						"NORMAL":1,
						"TEXCOORD_0":2
					},
					"indices":3,
					"material":0,
					"targets":[
						{
							"POSITION":4,
							"NORMAL":5
						}
					]
				},
				{
					"attributes":{
						"POSITION":6,
						"NORMAL":7,
						"TEXCOORD_0":8
					},
					"indices":9,
					"material":1,
					"targets":[
						{
							"POSITION":10,
							"NORMAL":11
						}
					]
				},
				{
					"attributes":{
						"POSITION":12,
						"NORMAL":13,
						"TEXCOORD_0":14
					},
					"indices":15,
					"material":2,
					"targets":[
						{
							"POSITION":16,
							"NORMAL":17
						}
					]
				}
			],
			"weights":[
				1
			]
		},
		{
			"extras":{
				"targetNames":[
					"Key 1"
				]
			},
			"name":"MBLab_anime_male.002",
			"primitives":[
				{
					"attributes":{
						"POSITION":18,
						"NORMAL":19,
						"TEXCOORD_0":20
					},
					"indices":21,
					"material":3,
					"targets":[
						{
							"POSITION":22,
							"NORMAL":23
						}
					]
				}
			],
			"weights":[
				0
			]
		}
	],
	"accessors":[
		{
			"bufferView":0,
			"componentType":5126,
			"count":192,
			"max":[
				0.08006999641656876,
				1.6510499715805054,
				0.13921000063419342
			],
			"min":[
				-0.08006999641656876,
				1.5930700302124023,
				0.0983399972319603
			],
			"type":"VEC3"
		},
		{
			"bufferView":1,
			"componentType":5126,
			"count":192,
			"type":"VEC3"
		},
		{
			"bufferView":2,
			"componentType":5126,
			"count":192,
			"type":"VEC2"
		},
		{
			"bufferView":3,
			"componentType":5123,
			"count":780,
			"type":"SCALAR"
		},
		{
			"bufferView":4,
			"componentType":5126,
			"count":192,
			"max":[
				0,
				0,
				0
			],
			"min":[
				0,
				0,
				0
			],
			"type":"VEC3"
		},
		{
			"bufferView":5,
			"componentType":5126,
			"count":192,
			"type":"VEC3"
		},
		{
			"bufferView":6,
			"componentType":5126,
			"count":414,
			"max":[
				0.13819000124931335,
				1.1237800121307373,
				0.10413999855518341
			],
			"min":[
				-0.13819000124931335,
				0.9242799878120422,
				-0.06870999932289124
			],
			"type":"VEC3"
		},
		{
			"bufferView":7,
			"componentType":5126,
			"count":414,
			"type":"VEC3"
		},
		{
			"bufferView":8,
			"componentType":5126,
			"count":414,
			"type":"VEC2"
		},
		{
			"bufferView":9,
			"componentType":5123,
			"count":1752,
			"type":"SCALAR"
		},
		{
			"bufferView":10,
			"componentType":5126,
			"count":414,
			"max":[
				0,
				0,
				0
			],
			"min":[
				0,
				0,
				0
			],
			"type":"VEC3"
		},
		{
			"bufferView":11,
			"componentType":5126,
			"count":414,
			"type":"VEC3"
		},
		{
			"bufferView":12,
			"componentType":5126,
			"count":13963,
			"max":[
				0.7531899809837341,
				1.7603399753570557,
				0.24264000356197357
			],
			"min":[
				-0.7531899809837341,
				-0.004259999841451645,
				-0.07244999706745148
			],
			"type":"VEC3"
		},
		{
			"bufferView":13,
			"componentType":5126,
			"count":13963,
			"type":"VEC3"
		},
		{
			"bufferView":14,
			"componentType":5126,
			"count":13963,
			"type":"VEC2"
		},
		{
			"bufferView":15,
			"componentType":5123,
			"count":74856,
			"type":"SCALAR"
		},
		{
			"bufferView":16,
			"componentType":5126,
			"count":13963,
			"max":[
				0.012970656156539917,
				0.006067037582397461,
				0.012974470853805542
			],
			"min":[
				-0.012970656156539917,
				-0.0052942633628845215,
				-0.012980273924767971
			],
			"type":"VEC3"
		},
		{
			"bufferView":17,
			"componentType":5126,
			"count":13963,
			"type":"VEC3"
		},
		{
			"bufferView":18,
			"componentType":5126,
			"count":572,
			"max":[
				0.06678000092506409,
				1.6413500308990479,
				0.11396999657154083
			],
			"min":[
				-0.06678000092506409,
				1.5817699432373047,
				0.07734999805688858
			],
			"type":"VEC3"
		},
		{
			"bufferView":19,
			"componentType":5126,
			"count":572,
			"type":"VEC3"
		},
		{
			"bufferView":20,
			"componentType":5126,
			"count":572,
			"type":"VEC2"
		},
		{
			"bufferView":21,
			"componentType":5123,
			"count":3216,
			"type":"SCALAR"
		},
		{
			"bufferView":22,
			"componentType":5126,
			"count":572,
			"max":[
				0,
				0,
				0
			],
			"min":[
				0,
				0,
				0
			],
			"type":"VEC3"
		},
		{
			"bufferView":23,
			"componentType":5126,
			"count":572,
			"type":"VEC3"
		}
	],
	"bufferViews":[
		{
			"buffer":0,
			"byteLength":2304,
			"byteOffset":0,
			"target":34962
		},
		{
			"buffer":0,
			"byteLength":2304,
			"byteOffset":2304,
			"target":34962
		},
		{
			"buffer":0,
			"byteLength":1536,
			"byteOffset":4608,
			"target":34962
		},
		{
			"buffer":0,
			"byteLength":1560,
			"byteOffset":6144,
			"target":34963
		},
		{
			"buffer":0,
			"byteLength":2304,
			"byteOffset":7704,
			"target":34962
		},
		{
			"buffer":0,
			"byteLength":2304,
			"byteOffset":10008,
			"target":34962
		},
		{
			"buffer":0,
			"byteLength":4968,
			"byteOffset":12312,
			"target":34962
		},
		{
			"buffer":0,
			"byteLength":4968,
			"byteOffset":17280,
			"target":34962
		},
		{
			"buffer":0,
			"byteLength":3312,
			"byteOffset":22248,
			"target":34962
		},
		{
			"buffer":0,
			"byteLength":3504,
			"byteOffset":25560,
			"target":34963
		},
		{
			"buffer":0,
			"byteLength":4968,
			"byteOffset":29064,
			"target":34962
		},
		{
			"buffer":0,
			"byteLength":4968,
			"byteOffset":34032,
			"target":34962
		},
		{
			"buffer":0,
			"byteLength":167556,
			"byteOffset":39000,
			"target":34962
		},
		{
			"buffer":0,
			"byteLength":167556,
			"byteOffset":206556,
			"target":34962
		},
		{
			"buffer":0,
			"byteLength":111704,
			"byteOffset":374112,
			"target":34962
		},
		{
			"buffer":0,
			"byteLength":149712,
			"byteOffset":485816,
			"target":34963
		},
		{
			"buffer":0,
			"byteLength":167556,
			"byteOffset":635528,
			"target":34962
		},
		{
			"buffer":0,
			"byteLength":167556,
			"byteOffset":803084,
			"target":34962
		},
		{
			"buffer":0,
			"byteLength":6864,
			"byteOffset":970640,
			"target":34962
		},
		{
			"buffer":0,
			"byteLength":6864,
			"byteOffset":977504,
			"target":34962
		},
		{
			"buffer":0,
			"byteLength":4576,
			"byteOffset":984368,
			"target":34962
		},
		{
			"buffer":0,
			"byteLength":6432,
			"byteOffset":988944,
			"target":34963
		},
		{
			"buffer":0,
			"byteLength":6864,
			"byteOffset":995376,
			"target":34962
		},
		{
			"buffer":0,
			"byteLength":6864,
			"byteOffset":1002240,
			"target":34962
		}
	],
	"buffers":[
		{
			"byteLength":1009104,
			"uri":"gcctvyd.bin"
		}
	]
}
